<svg aria-hidden="true" style="position: absolute; width: 0; height: 0; overflow: hidden;" version="1.1" xmlns="http://www.w3.org/2000/svg" xmlns:xlink="http://www.w3.org/1999/xlink">
<defs>
<symbol id="love" viewBox="0 0 34 32">
<path fill="#ff6b08" style="fill: var(--color1, #ff6b08)" d="M17.231 31.705l-2.412-2.412c-8.96-7.926-14.818-13.268-14.818-19.815 0-5.342 4.135-9.477 9.477-9.477 2.929 0 5.858 1.378 7.754 3.618 1.895-2.24 4.825-3.618 7.754-3.618 5.342 0 9.477 4.135 9.477 9.477 0 6.548-5.858 11.889-14.818 19.815l-2.412 2.412z"></path>
</symbol>
<symbol id="logo" viewBox="0 0 32 32">
<path fill="none" stroke="#818181" style="stroke: var(--color1, #818181)" stroke-linejoin="round" stroke-linecap="round" stroke-miterlimit="4" stroke-width="2.6667" d="M26.427 2.667h-20.853c-1.605 0-2.907 1.301-2.907 2.907v0 20.853c0 1.605 1.301 2.907 2.907 2.907v0h20.853c1.605 0 2.907-1.301 2.907-2.907v0-20.853c0-1.605-1.301-2.907-2.907-2.907v0zM9.333 2.667v26.667M22.667 2.667v26.667M2.667 16h26.667M2.667 9.333h6.667M2.667 22.667h6.667M22.667 22.667h6.667M22.667 9.333h6.667"></path>
</symbol>
<symbol id="search" viewBox="0 0 32 32">
<path fill="none" stroke="#fff" style="stroke: var(--color2, #fff)" stroke-linejoin="round" stroke-linecap="round" stroke-miterlimit="4" stroke-width="2.6667" d="M14.667 25.333c5.891 0 10.667-4.776 10.667-10.667s-4.776-10.667-10.667-10.667v0c-5.891 0-10.667 4.776-10.667 10.667s4.776 10.667 10.667 10.667v0zM28 28l-5.8-5.8"></path>
</symbol>
<symbol id="github" viewBox="0 0 32 32">
<path d="M16 3.2c-7.069 0-12.8 5.731-12.8 12.8 0 5.998 4.13 11.017 9.698 12.405-0.062-0.178-0.098-0.384-0.098-0.598 0-0.008 0-0.017 0-0.025v0.001-2.188h-1.609c-0.876 0-1.654-0.377-2.032-1.076-0.419-0.778-0.492-1.967-1.531-2.694-0.308-0.242-0.074-0.518 0.282-0.481 0.656 0.186 1.2 0.636 1.712 1.303 0.51 0.669 0.75 0.82 1.702 0.82 0.462 0 1.153-0.027 1.804-0.129 0.35-0.889 0.955-1.707 1.694-2.093-4.262-0.438-6.297-2.559-6.297-5.438 0-1.239 0.528-2.438 1.425-3.449-0.294-1.003-0.665-3.047 0.113-3.826 1.918 0 3.077 1.244 3.356 1.58 0.923-0.325 1.987-0.513 3.095-0.513 0.005 0 0.009 0 0.014 0h-0.001c1.105 0 2.159 0.186 3.117 0.515 0.275-0.334 1.436-1.582 3.358-1.582 0.781 0.78 0.406 2.833 0.109 3.834 0.892 1.008 1.417 2.204 1.417 3.441 0 2.877-2.031 4.996-6.287 5.437 1.171 0.611 2.026 2.329 2.026 3.622v2.916c0 0.111-0.025 0.191-0.037 0.286 4.988-1.748 8.571-6.484 8.571-12.069 0-7.069-5.731-12.8-12.8-12.8z"></path>
</symbol>
<symbol id="email" viewBox="0 0 32 32">
<path d="M31.377 4.774l-12.206 11.65 12.335 10.646c0.31-0.447 0.494-0.989 0.494-1.573v-18.993c0-0.658-0.239-1.254-0.623-1.73zM13.98 16.058l0.425 0.395c0.895 0.833 2.295 0.832 3.189 0.001l12.959-12.369c-0.395-0.217-0.842-0.351-1.323-0.351h-26.46c-0.001 0-0.001 0-0.002 0-0.579 0-1.116 0.178-1.56 0.483l0.009-0.006 12.76 11.845c0.001 0.001 0.002 0.001 0.003 0.002zM0.467 4.969c-0.294 0.44-0.467 0.968-0.467 1.535v18.992c0 0.551 0.166 1.063 0.445 1.495l12.37-10.559-12.348-11.463z"></path>
<path d="M18.33 17.226l-0.004 0.004-0.001 0.001-0.005 0.004c-0.813 0.757-1.915 1.042-2.946 0.851-0.068-0.012-0.132-0.040-0.199-0.056-0.136-0.034-0.274-0.063-0.405-0.114-0.218-0.085-0.405-0.179-0.581-0.29l0.014 0.008c-0.001-0.001-0.003-0.002-0.005-0.002l-0-0c-0.196-0.123-0.366-0.254-0.522-0.4l0.002 0.002-0.077-0.071-12.416 10.599c0.45 0.316 0.995 0.505 1.585 0.505h26.459c0.557 0 1.073-0.168 1.508-0.452l-12.341-10.65-0.066 0.061z"></path>
</symbol>
<symbol id="telegram" viewBox="0 0 32 32">
<path d="M29.528 4.193c-0.48-0.407-1.234-0.465-2.013-0.152h-0.001c-0.82 0.329-23.207 9.932-24.118 10.324-0.166 0.058-1.613 0.598-1.464 1.801 0.133 1.085 1.297 1.534 1.439 1.586l5.692 1.949c0.378 1.257 1.77 5.894 2.077 6.885 0.192 0.618 0.505 1.429 1.053 1.596 0.481 0.186 0.96 0.016 1.27-0.227l3.48-3.228 5.617 4.381 0.134 0.080c0.381 0.169 0.747 0.253 1.096 0.253 0.269 0 0.528-0.051 0.775-0.152 0.842-0.346 1.178-1.148 1.213-1.238l4.196-21.809c0.256-1.165-0.1-1.757-0.444-2.049zM14.080 20.48l-1.92 5.12-1.92-6.4 14.72-10.88-10.88 12.16z"></path>
</symbol>
<symbol id="linkedin" viewBox="0 0 32 32">
<path d="M5.12 1.926c-2.221 0-3.834 1.331-3.834 3.162 0 1.837 1.651 3.226 3.834 3.226 2.221 0 3.834-1.357 3.834-3.264-0.102-1.837-1.683-3.123-3.834-3.123zM1.92 9.6c-0.352 0-0.64 0.288-0.64 0.64v18.56c0 0.352 0.288 0.64 0.64 0.64h6.4c0.352 0 0.64-0.288 0.64-0.64v-18.56c0-0.352-0.288-0.64-0.64-0.64h-6.4zM11.52 9.6c-0.352 0-0.64 0.288-0.64 0.64v18.56c0 0.352 0.288 0.64 0.64 0.64h5.76c0.353 0 0.64-0.287 0.64-0.64v0-9.92c0-1.517 1.165-2.752 2.65-2.867 0.077-0.013 0.154-0.013 0.23-0.013s0.154 0 0.23 0.013c1.485 0.115 2.65 1.35 2.65 2.867v9.92c0 0.353 0.287 0.64 0.64 0.64v0h5.76c0.352 0 0.64-0.288 0.64-0.64v-10.88c0-4.141-2.221-8.32-7.174-8.32-2.253 0-3.955 0.87-4.986 1.594v-0.954c0-0.352-0.288-0.64-0.64-0.64h-6.4z"></path>
</symbol>
<symbol id="close" viewBox="0 0 32 32"><path d="m26.667 7.303-1.97-1.97-7.808 7.808-7.808-7.808-1.97 1.97 7.808 7.808-7.808 7.808 1.97 1.97 7.808-7.808 7.808 7.808 1.97-1.97-7.808-7.808 7.808-7.808z"/></symbol>
</defs>
</svg>
